<svg width="24" height="24" viewBox="0 0 21 20" fill="none" xmlns="http://www.w3.org/2000/svg"><g clip-path="url(#clip0_3946_13658)"><path d="M18.7503 11.9625C18.7503 11.3442 18.2803 10.8408 17.7003 10.8408H9.31367C8.73367 10.8408 8.26367 11.3442 8.26367 11.9625C8.26367 12.5808 8.73284 13.0842 9.31367 13.0842H17.7003C18.2803 13.085 18.7503 12.5817 18.7503 11.9625Z" fill="currentColor"></path><path d="M3.31898 15.1567L6.91315 18.7908C7.72398 19.6067 8.84482 20.0008 10.0823 20.0008C11.3198 20.0008 12.4407 19.5742 13.2532 18.7558L15.4098 16.5583C15.8348 16.13 15.8198 15.4208 15.3773 14.975C14.9348 14.5292 14.2315 14.5142 13.8073 14.9425L11.5773 17.115C11.1923 17.5042 10.659 17.6667 10.0698 17.6667C9.48065 17.6667 8.94815 17.5042 8.56148 17.115L4.97982 13.4792C4.59398 13.09 4.39982 12.5208 4.39982 11.9267C4.39982 11.3325 4.59398 10.7958 4.97982 10.4067L8.55065 6.75666C8.93648 6.36749 9.48065 6.21916 10.069 6.21916C10.6573 6.21916 11.1907 6.38166 11.5765 6.77083L13.8065 8.94249C14.2315 9.37166 14.9348 9.35666 15.3773 8.91083C15.8198 8.46416 15.8348 7.75499 15.4098 7.32666L13.2532 5.12999C12.7123 4.59166 12.0273 4.19999 11.2598 4.02166L11.2315 4.01582L13.2707 1.92999C13.6973 1.50166 13.6823 0.791658 13.2398 0.345824C12.7973 -0.100009 12.0932 -0.114176 11.6673 0.314158L3.31898 8.73083C2.50815 9.54916 2.08398 10.6783 2.08398 11.9267C2.08398 13.175 2.50815 14.34 3.31898 15.1567Z" fill="currentColor"></path><path d="M6.07447 17.9418L3.31898 15.1557C2.50815 14.339 2.08398 13.174 2.08398 11.9257C2.08398 10.6774 2.50815 9.54818 3.31898 8.72985L11.6673 0.313181C12.0932 -0.115152 12.7973 -0.100986 13.2398 0.344848C13.6823 0.790681 13.6973 1.50068 13.2707 1.92901L11.2315 4.01485L8.55065 6.75568L4.97982 10.4057C4.59398 10.7949 4.39982 11.3315 4.39982 11.9257C4.39982 12.5198 4.59398 13.089 4.97982 13.4782L7.74887 16.2891C8.19973 16.7468 8.20001 17.4815 7.74951 17.9395C7.28948 18.4072 6.53578 18.4083 6.07447 17.9418Z" fill="currentColor"></path></g><defs><clipPath id="clip0_3946_13658"><rect width="20" height="20" fill="white" transform="translate(0.416992)"></rect></clipPath></defs></svg>